<svg xmlns="http://www.w3.org/2000/svg" viewBox="0 0 89.86 18.31"><title>Asset 8</title><g id="17d1d59c-f8b5-4f3c-8acc-3f949aec4df5" data-name="Layer 2"><g id="19cc2e81-18dc-4abc-81ed-3ffbf52db61b" data-name="Layer 1"><path d="M12.71,12.39H3.79v7.19h9.77l-.2,1.22H2.45V3.69H13.16V4.91H3.79v6.26h8.92Z" transform="translate(-2.45 -2.78)"/><path d="M16.37,11.73c0-1.05,0-2.2,0-3.15h1.22c0,.41.08,1.46.05,2.17a3.92,3.92,0,0,1,3.75-2.47A3.55,3.55,0,0,1,25,10.7a4.25,4.25,0,0,1,4.07-2.42C31,8.28,33,9.36,33,12.76v8H31.73V12.9c0-1.63-.6-3.42-2.92-3.42s-3.52,1.91-3.52,4.28v7H24.06V12.93c0-1.79-.55-3.45-2.84-3.45s-3.6,2.1-3.6,4.6V20.8H16.37Z" transform="translate(-2.45 -2.78)"/><path d="M45.48,18.48a14.41,14.41,0,0,0,.17,2.32H44.46a7.72,7.72,0,0,1-.23-1.88c-.42.9-1.52,2.17-4.09,2.17-2.9,0-4.15-1.83-4.15-3.66,0-2.69,2.12-3.92,5.87-3.92h2.37V12.27c0-1.22-.37-2.86-3.22-2.86-2.52,0-2.9,1.29-3.17,2.3H36.59c.15-1.35,1-3.43,4.45-3.43,2.84,0,4.44,1.18,4.44,3.87Zm-1.22-3.91H41.81c-2.77,0-4.49.7-4.49,2.81A2.58,2.58,0,0,0,40.19,20c3.57,0,4.07-2.32,4.07-5Z" transform="translate(-2.45 -2.78)"/><path d="M49.6,2.78h1.24V5.15H49.6Zm0,5.8h1.24V20.8H49.6Z" transform="translate(-2.45 -2.78)"/><path d="M54.94,20.8v-18h1.25v18Z" transform="translate(-2.45 -2.78)"/><path d="M68.52,3.69V20.8H67.17V3.69Z" transform="translate(-2.45 -2.78)"/><path d="M73.66,3.69h5.79c4.79,0,8.11,3.27,8.11,8.41s-3.24,8.7-8.14,8.7H73.66ZM75,19.58h4.21c4.62,0,6.89-3.18,6.89-7.41,0-3.76-2-7.26-6.89-7.26H75Z" transform="translate(-2.45 -2.78)"/><path d="M91.1,11.73V8.58h1.2v3.15Zm0,9.07V17.62h1.2V20.8Z" transform="translate(-2.45 -2.78)"/></g></g></svg>