<svg xmlns="http://www.w3.org/2000/svg" viewBox="0 0 174.19 18.31"><title>Asset 11</title><g id="0a621da8-2216-4305-b956-96ccbf0e123a" data-name="Layer 2"><g id="c838333f-1621-48bd-a7b9-0fe68dfb7d24" data-name="Layer 1"><path d="M15.63,16.23A6.36,6.36,0,0,1,9.06,21C4,21,1.4,17.08,1.4,12.27,1.4,7.65,4,3.44,9.09,3.44c3.77,0,6,2.06,6.56,4.92H14.3A5,5,0,0,0,9,4.67c-4.34,0-6.16,3.88-6.16,7.57s1.79,7.53,6.26,7.53a5.11,5.11,0,0,0,5.17-3.54Z" transform="translate(-1.4 -2.78)"/><path d="M29,14.66c0,3.4-1.92,6.43-5.64,6.43-3.37,0-5.47-2.71-5.47-6.4,0-3.5,2-6.41,5.59-6.41C26.83,8.28,29,10.83,29,14.66Zm-9.79,0c0,2.91,1.6,5.25,4.25,5.25s4.22-2.17,4.22-5.25c0-2.89-1.5-5.26-4.27-5.26S19.24,11.75,19.24,14.69Z" transform="translate(-1.4 -2.78)"/><path d="M32.12,11.66c0-1.08,0-2.11,0-3.08h1.22a22.76,22.76,0,0,1,0,2.32,4.07,4.07,0,0,1,4.15-2.62c2.22,0,4.19,1.23,4.19,4.6V20.8H40.46V13.07c0-2.17-.92-3.59-3.09-3.59-3,0-4,2.42-4,5.09V20.8H32.12Z" transform="translate(-1.4 -2.78)"/><path d="M45.8,11.66c0-1.08,0-2.11,0-3.08H47c0,.39.07,2,0,2.32a4.07,4.07,0,0,1,4.14-2.62c2.22,0,4.2,1.23,4.2,4.6V20.8H54.14V13.07c0-2.17-.92-3.59-3.1-3.59-3,0-4,2.42-4,5.09V20.8H45.8Z" transform="translate(-1.4 -2.78)"/><path d="M59.75,14.83c0,3.16,1.65,5.11,4,5.11a3.51,3.51,0,0,0,3.59-2.29h1.28a4.78,4.78,0,0,1-4.92,3.44c-3.8,0-5.27-3.2-5.27-6.3,0-3.5,1.77-6.51,5.42-6.51,3.84,0,5.07,3.25,5.07,5.55,0,.34,0,.69,0,1Zm7.92-1.07c0-2.42-1.38-4.33-3.82-4.33s-3.75,1.76-4,4.33Z" transform="translate(-1.4 -2.78)"/><path d="M81.32,17.21a4.77,4.77,0,0,1-4.84,3.88c-3.12,0-5.35-2.27-5.35-6.35,0-3.35,1.83-6.46,5.5-6.46a4.42,4.42,0,0,1,4.69,3.91H80.05A3.37,3.37,0,0,0,76.6,9.43c-2.64,0-4.14,2.2-4.14,5.26s1.4,5.25,4,5.25a3.51,3.51,0,0,0,3.57-2.73Z" transform="translate(-1.4 -2.78)"/><path d="M82.64,8.58H85V4.76h1.25V8.58h3V9.73h-3v7.94c0,1.37.3,2.15,1.5,2.15a4.56,4.56,0,0,0,1.3-.15v1.08a4.54,4.54,0,0,1-1.55.22c-1.6,0-2.5-.78-2.5-2.74V9.73H82.64Z" transform="translate(-1.4 -2.78)"/><path d="M98.24,8.58c1.85,6.3,2.92,9.92,3.12,11h0c.2-1,1.44-4.82,3.39-11h1.35c2.32,7.55,3,9.73,3.24,10.68h0c.35-1.35.92-3.18,3.22-10.68h1.32L110,20.8h-1.38c-1.34-4.33-3-9.63-3.22-10.76h0c-.25,1.2-1.67,5.58-3.3,10.76h-1.49L96.92,8.58Z" transform="translate(-1.4 -2.78)"/><path d="M116.59,2.78h1.24V5.15h-1.24Zm0,5.8h1.24V20.8h-1.24Z" transform="translate(-1.4 -2.78)"/><path d="M120.23,8.58h2.32V4.76h1.25V8.58h3V9.73h-3v7.94c0,1.37.3,2.15,1.5,2.15a4.56,4.56,0,0,0,1.3-.15v1.08a4.54,4.54,0,0,1-1.55.22c-1.6,0-2.5-.78-2.5-2.74V9.73h-2.32Z" transform="translate(-1.4 -2.78)"/><path d="M130.49,2.78v7.85a4.37,4.37,0,0,1,4.12-2.35c1.77,0,4.22.88,4.22,4.75V20.8h-1.25V13.27c0-2.42-1.13-3.79-3.2-3.79-2.47,0-3.89,1.49-3.89,4.5V20.8h-1.25v-18Z" transform="translate(-1.4 -2.78)"/><path d="M158.74,17.23c0,1.2,0,3.1,0,3.57h-1.2a18.94,18.94,0,0,1-.08-2.13c-.52,1.44-1.79,2.42-4,2.42-1.8,0-4.1-.68-4.1-4.42V8.58h1.22v7.79c0,1.79.58,3.52,3.05,3.52,2.8,0,3.84-1.54,3.84-5V8.58h1.25Z" transform="translate(-1.4 -2.78)"/><path d="M162.69,17.43A3.3,3.3,0,0,0,166.23,20c2.22,0,3.12-1,3.12-2.37s-.6-2.08-3.39-2.74c-3.22-.76-4-1.71-4-3.33s1.29-3.25,4.12-3.25,4.16,1.69,4.36,3.43h-1.24A2.93,2.93,0,0,0,166,9.41c-2.18,0-2.8,1.05-2.8,2s.6,1.68,3.07,2.27c3.52.83,4.39,2,4.39,3.79,0,2.22-1.84,3.59-4.46,3.59-2.85,0-4.45-1.46-4.8-3.66Z" transform="translate(-1.4 -2.78)"/><path d="M174.39,11.73V8.58h1.2v3.15Zm0,9.07V17.62h1.2V20.8Z" transform="translate(-1.4 -2.78)"/></g></g></svg>