<svg xmlns="http://www.w3.org/2000/svg" viewBox="0 0 86.19 17.65"><title>Asset 9</title><g id="8e95b8da-77ba-417f-81aa-b4ad36cb2b5c" data-name="Layer 2"><g id="48319a64-2077-4e43-9cc5-b298103c07d9" data-name="Layer 1"><path d="M15.63,16.23A6.36,6.36,0,0,1,9.06,21C4,21,1.4,17.08,1.4,12.27,1.4,7.65,4,3.44,9.09,3.44c3.77,0,6,2.06,6.56,4.92H14.3A5,5,0,0,0,9,4.67c-4.34,0-6.16,3.88-6.16,7.57s1.79,7.53,6.26,7.53a5.11,5.11,0,0,0,5.17-3.54Z" transform="translate(-1.4 -3.44)"/><path d="M29,14.66c0,3.4-1.92,6.43-5.64,6.43-3.37,0-5.47-2.71-5.47-6.4,0-3.5,2-6.41,5.59-6.41C26.83,8.28,29,10.83,29,14.66Zm-9.79,0c0,2.91,1.6,5.25,4.25,5.25s4.22-2.17,4.22-5.25c0-2.89-1.5-5.26-4.27-5.26S19.24,11.75,19.24,14.69Z" transform="translate(-1.4 -3.44)"/><path d="M32.12,11.66c0-1.08,0-2.11,0-3.08h1.22a22.76,22.76,0,0,1,0,2.32,4.07,4.07,0,0,1,4.15-2.62c2.22,0,4.19,1.23,4.19,4.6V20.8H40.46V13.07c0-2.17-.92-3.59-3.09-3.59-3,0-4,2.42-4,5.09V20.8H32.12Z" transform="translate(-1.4 -3.44)"/><path d="M43.85,8.58h2.33V4.76h1.24V8.58h3V9.73h-3v7.94c0,1.37.3,2.15,1.5,2.15a4.52,4.52,0,0,0,1.3-.15v1.08a4.47,4.47,0,0,1-1.55.22c-1.6,0-2.49-.78-2.49-2.74V9.73H43.85Z" transform="translate(-1.4 -3.44)"/><path d="M61.5,18.48a13,13,0,0,0,.18,2.32h-1.2a7.72,7.72,0,0,1-.23-1.88c-.42.9-1.52,2.17-4.09,2.17-2.9,0-4.14-1.83-4.14-3.66,0-2.69,2.12-3.92,5.86-3.92h2.37V12.27c0-1.22-.37-2.86-3.22-2.86-2.52,0-2.89,1.29-3.17,2.3H52.61c.15-1.35,1-3.43,4.45-3.43,2.84,0,4.44,1.18,4.44,3.87Zm-1.22-3.91H57.83c-2.77,0-4.49.7-4.49,2.81A2.58,2.58,0,0,0,56.21,20c3.57,0,4.07-2.32,4.07-5Z" transform="translate(-1.4 -3.44)"/><path d="M74.81,17.21A4.78,4.78,0,0,1,70,21.09c-3.12,0-5.34-2.27-5.34-6.35,0-3.35,1.82-6.46,5.49-6.46a4.44,4.44,0,0,1,4.7,3.91H73.53a3.35,3.35,0,0,0-3.44-2.76c-2.65,0-4.15,2.2-4.15,5.26s1.4,5.25,4,5.25a3.51,3.51,0,0,0,3.57-2.73Z" transform="translate(-1.4 -3.44)"/><path d="M76.13,8.58h2.32V4.76H79.7V8.58h3V9.73h-3v7.94c0,1.37.3,2.15,1.49,2.15a4.52,4.52,0,0,0,1.3-.15v1.08a4.47,4.47,0,0,1-1.55.22c-1.59,0-2.49-.78-2.49-2.74V9.73H76.13Z" transform="translate(-1.4 -3.44)"/><path d="M86.38,11.73V8.58h1.2v3.15Zm0,9.07V17.62h1.2V20.8Z" transform="translate(-1.4 -3.44)"/></g></g></svg>