<svg xmlns="http://www.w3.org/2000/svg" viewBox="0 0 152.75 22.25"><title>Asset 7</title><g id="4faea84f-db10-4d37-bfb4-ca18d45baf6b" data-name="Layer 2"><g id="9fea05b2-5b89-42e8-9a6b-d84c1c614fc2" data-name="Layer 1"><path d="M6.34,20.8V14.37a.79.79,0,0,0-.1-.39L0,3.69H1.57c1.75,2.91,4.8,8,5.54,9.24.75-1.27,3.82-6.28,5.7-9.24H14.3L7.79,14.08a.69.69,0,0,0-.08.36V20.8Z" transform="translate(0 -3.69)"/><path d="M24.31,14.66c0,3.4-1.92,6.43-5.64,6.43-3.37,0-5.47-2.71-5.47-6.4,0-3.5,2-6.41,5.6-6.41C22.12,8.28,24.31,10.83,24.31,14.66Zm-9.78,0c0,2.91,1.59,5.25,4.24,5.25S23,17.77,23,14.69c0-2.89-1.5-5.26-4.27-5.26S14.53,11.75,14.53,14.69Z" transform="translate(0 -3.69)"/><path d="M36.74,17.23c0,1.2,0,3.1,0,3.57h-1.2a18.94,18.94,0,0,1-.08-2.13c-.52,1.44-1.79,2.42-4,2.42-1.8,0-4.1-.68-4.1-4.42V8.58H28.6v7.79c0,1.79.58,3.52,3,3.52,2.8,0,3.84-1.54,3.84-5V8.58h1.25Z" transform="translate(0 -3.69)"/><path d="M40.83,11.9c0-2.05,0-2.93,0-3.32H42c0,.39,0,1.17,0,2.73a4.74,4.74,0,0,1,4.35-3V9.6a4.45,4.45,0,0,0-4.35,4.84V20.8H40.83Z" transform="translate(0 -3.69)"/><path d="M70.94,12.93c0-3.35,0-6.55.1-8.26H71C70.26,7,66.72,15.4,64.5,20.8H63.17C61.5,16.62,57.83,7.23,57,4.64H57c.13,2,.18,5.94.18,8.87V20.8H55.81V3.69h2c2.4,5.86,5.42,13.54,6.07,15.47H64c.4-1.25,3.89-9.78,6.34-15.47h2V20.8H70.94Z" transform="translate(0 -3.69)"/><path d="M77,14.83c0,3.16,1.65,5.11,4,5.11a3.51,3.51,0,0,0,3.6-2.29h1.27a4.76,4.76,0,0,1-4.92,3.44c-3.79,0-5.26-3.2-5.26-6.3,0-3.5,1.77-6.51,5.41-6.51,3.85,0,5.07,3.25,5.07,5.55,0,.34,0,.69,0,1Zm7.91-1.07c0-2.42-1.37-4.33-3.82-4.33s-3.74,1.76-4,4.33Z" transform="translate(0 -3.69)"/><path d="M89.5,17.43A3.31,3.31,0,0,0,93.05,20c2.22,0,3.12-1,3.12-2.37s-.6-2.08-3.39-2.74c-3.22-.76-4-1.71-4-3.33s1.29-3.25,4.12-3.25S97,10,97.24,11.71H96a2.93,2.93,0,0,0-3.17-2.3c-2.18,0-2.8,1.05-2.8,2s.6,1.68,3.07,2.27c3.52.83,4.39,2,4.39,3.79,0,2.22-1.84,3.59-4.47,3.59-2.84,0-4.44-1.46-4.79-3.66Z" transform="translate(0 -3.69)"/><path d="M100.89,17.43A3.3,3.3,0,0,0,104.43,20c2.22,0,3.12-1,3.12-2.37s-.6-2.08-3.39-2.74c-3.22-.76-4-1.71-4-3.33s1.3-3.25,4.12-3.25,4.17,1.69,4.37,3.43h-1.25a2.93,2.93,0,0,0-3.17-2.3c-2.18,0-2.8,1.05-2.8,2s.6,1.68,3.07,2.27c3.52.83,4.39,2,4.39,3.79,0,2.22-1.84,3.59-4.46,3.59-2.85,0-4.45-1.46-4.8-3.66Z" transform="translate(0 -3.69)"/><path d="M120.63,18.48a13,13,0,0,0,.18,2.32h-1.2a7.72,7.72,0,0,1-.23-1.88c-.42.9-1.52,2.17-4.09,2.17-2.9,0-4.14-1.83-4.14-3.66,0-2.69,2.12-3.92,5.86-3.92h2.37V12.27c0-1.22-.37-2.86-3.22-2.86-2.52,0-2.89,1.29-3.17,2.3h-1.25c.15-1.35,1-3.43,4.45-3.43,2.84,0,4.44,1.18,4.44,3.87Zm-1.22-3.91H117c-2.77,0-4.49.7-4.49,2.81A2.58,2.58,0,0,0,115.34,20c3.57,0,4.07-2.32,4.07-5Z" transform="translate(0 -3.69)"/><path d="M134.28,20c0,3.91-1.77,6-5.39,6-3.24,0-4.59-1.78-4.89-3.64h1.27a3.44,3.44,0,0,0,3.67,2.49c3.25,0,4.15-2.05,4.15-5.15V18.35c-.68,1.59-1.9,2.45-4.17,2.45-2.92,0-5.17-2.32-5.17-6.11,0-4.11,2.4-6.41,5.34-6.41,2.55,0,3.65,1.18,4,2.15,0-.7,0-1.56.07-1.85h1.17c0,.44-.05,2.37-.05,3.54Zm-9.21-5.33c0,2.91,1.58,5,4,5,3.12,0,4.07-2,4.07-5.21s-1-5-4-5S125.07,11.85,125.07,14.64Z" transform="translate(0 -3.69)"/><path d="M138.65,14.83c0,3.16,1.65,5.11,4,5.11a3.51,3.51,0,0,0,3.6-2.29h1.27a4.76,4.76,0,0,1-4.91,3.44c-3.8,0-5.27-3.2-5.27-6.3,0-3.5,1.77-6.51,5.41-6.51,3.85,0,5.07,3.25,5.07,5.55,0,.34,0,.69,0,1Zm7.91-1.07c0-2.42-1.37-4.33-3.82-4.33s-3.74,1.76-4,4.33Z" transform="translate(0 -3.69)"/><path d="M151.55,11.73V8.58h1.2v3.15Zm0,9.07V17.62h1.2V20.8Z" transform="translate(0 -3.69)"/></g></g></svg>