<svg xmlns="http://www.w3.org/2000/svg" viewBox="0 0 65.47 17.4"><title>Asset 10</title><g id="52196fbc-3e6a-4b9a-a014-23c60134fc5e" data-name="Layer 2"><g id="8d6071e4-f165-436e-8268-17bf98005833" data-name="Layer 1"><path d="M2.45,20.8V3.69h2c2.72,4.1,9.12,13.66,10.21,15.52h0c-.15-2.47-.13-5-.13-7.77V3.69h1.38V20.8H14.08C11.48,16.84,5,6.89,3.74,5h0c.12,2.25.1,4.74.1,7.84v8Z" transform="translate(-2.45 -3.69)"/><path d="M28.73,18.48a13,13,0,0,0,.18,2.32h-1.2a7.72,7.72,0,0,1-.23-1.88c-.42.9-1.52,2.17-4.09,2.17-2.9,0-4.15-1.83-4.15-3.66,0-2.69,2.13-3.92,5.87-3.92h2.37V12.27c0-1.22-.37-2.86-3.22-2.86-2.52,0-2.89,1.29-3.17,2.3H19.84c.15-1.35,1-3.43,4.45-3.43,2.84,0,4.44,1.18,4.44,3.87Zm-1.22-3.91H25.06c-2.77,0-4.49.7-4.49,2.81A2.58,2.58,0,0,0,23.44,20c3.57,0,4.07-2.32,4.07-5Z" transform="translate(-2.45 -3.69)"/><path d="M32.85,11.73c0-1.05,0-2.2,0-3.15h1.23c0,.41.07,1.46.05,2.17a3.9,3.9,0,0,1,3.74-2.47,3.54,3.54,0,0,1,3.62,2.42,4.25,4.25,0,0,1,4.07-2.42c1.92,0,3.92,1.08,3.92,4.48v8H48.2V12.9c0-1.63-.6-3.42-2.92-3.42s-3.52,1.91-3.52,4.28v7H40.54V12.93c0-1.79-.55-3.45-2.85-3.45s-3.59,2.1-3.59,4.6V20.8H32.85Z" transform="translate(-2.45 -3.69)"/><path d="M53.81,14.83c0,3.16,1.65,5.11,4,5.11a3.5,3.5,0,0,0,3.59-2.29h1.28a4.78,4.78,0,0,1-4.92,3.44c-3.8,0-5.27-3.2-5.27-6.3,0-3.5,1.77-6.51,5.42-6.51,3.84,0,5.07,3.25,5.07,5.55,0,.34,0,.69,0,1Zm7.92-1.07c0-2.42-1.38-4.33-3.82-4.33s-3.75,1.76-4,4.33Z" transform="translate(-2.45 -3.69)"/><path d="M66.72,11.73V8.58h1.2v3.15Zm0,9.07V17.62h1.2V20.8Z" transform="translate(-2.45 -3.69)"/></g></g></svg>