<svg id="b103c447-7c8c-41dc-adf1-01deea38a383" data-name="Layer 1" xmlns="http://www.w3.org/2000/svg" xmlns:xlink="http://www.w3.org/1999/xlink" viewBox="0 0 1110 243.42"><defs><style>.\36 c78cf31-3707-4281-b80c-87f08cce7f24{font-size:15.94px;fill:#fff;}.\34 8967904-e015-4d3e-bf96-996b4170c789,.\36 c78cf31-3707-4281-b80c-87f08cce7f24{font-family:MyriadPro-Regular, Myriad Pro;}.e280f74d-5668-4517-84b7-71a57b66f611{letter-spacing:0em;}.\38 11278b2-dcc6-4a41-9b6f-dffc713fb2a3{letter-spacing:0.02em;}.fedff24a-eae9-4e27-a9f1-742f9d8510b7{letter-spacing:0em;}.\31 48ba595-ab54-443a-96cc-774bdfc417c3{letter-spacing:-0.01em;}.\37 4a33913-0aad-4fa9-8f98-8ba195b4a1cc{letter-spacing:0em;}.\35 a68a161-1009-41fa-9042-1184b8d8ad99{letter-spacing:-0.03em;}.\38 d663ec6-dbde-4973-a924-f435cd561553{letter-spacing:-0.03em;}.\39 4460784-aed8-4b22-b789-7b5fb6fdf323{letter-spacing:0em;}.\35 1115232-a8b8-47c9-aea6-7b5256069e3d{letter-spacing:0em;}.\38 5940e6e-6384-4ecb-8aad-a64d5112eec8{letter-spacing:-0.01em;}.e30d453e-fe78-49b9-8b53-f0716ed55dfc{letter-spacing:0.02em;}.\38 ae102c1-5e39-4796-936f-c53b543b561b{fill:#4f4949;}.\34 8967904-e015-4d3e-bf96-996b4170c789{font-size:16.62px;}.\34 8967904-e015-4d3e-bf96-996b4170c789,.\35 cf8e351-2fef-4d27-ac37-0f8884a533af{fill:#39b54a;}.\31 e282348-5248-4bc6-ba37-b9b6b10894ed{letter-spacing:0em;}.\36 6b57e29-9629-48de-b0b6-cdfd6489dcda{letter-spacing:-0.01em;}.\31 273b0ab-260c-4b26-98f3-97ee682b88f8{letter-spacing:0em;}.dcc4ced6-7668-4af4-b043-b9501389468f{letter-spacing:0em;}.\38 4fe9c21-677a-40e1-bdaa-ab8bbed78a93{letter-spacing:0.01em;}.b38a332c-48b2-4bc2-baba-52b46cf62e5c{letter-spacing:-0.01em;}.f54a835d-bef5-4587-8942-6a37dfea63d4{fill:#666;opacity:0.81;}.\31 d25bf7a-67bc-49ba-8719-9fbaa37016c3,.a14e3fef-d885-4468-96b2-ef0a84fe0be7{fill:none;stroke-miterlimit:10;stroke-width:2px;}.\31 d25bf7a-67bc-49ba-8719-9fbaa37016c3{stroke:#e6e6e6;stroke-linecap:round;}.ef52285f-825b-4dc4-8374-d318670bffa6{letter-spacing:-0.01em;}.\35 7f912f4-4412-4961-8e87-cad7de1c61de{letter-spacing:0.01em;}.a14e3fef-d885-4468-96b2-ef0a84fe0be7{stroke:#666;}</style></defs><title>You can use it directly</title><path d="M358,307.94a7.24,7.24,0,0,0-7,7.13V450.21a6.06,6.06,0,0,1-6,6.12H192.33a6.06,6.06,0,0,1-6-6.12V315.07c-.6-7.12-7-7.13-7-7.13Z" transform="translate(0 -212.91)"/><rect y="0.07" width="1110" height="94.96"/><rect x="431.79" y="36.39" width="69.72" height="26.27" rx="3.63" ry="3.63"/><text class="6c78cf31-3707-4281-b80c-87f08cce7f24" transform="translate(441.36 54.29)"><tspan class="e280f74d-5668-4517-84b7-71a57b66f611">R</tspan><tspan x="8.64" y="0">epo</tspan><tspan class="811278b2-dcc6-4a41-9b6f-dffc713fb2a3" x="34.45" y="0">r</tspan><tspan x="40.04" y="0">ts</tspan></text><rect x="191.07" y="36.2" width="56.05" height="26.27" rx="3.63" ry="3.63"/><text class="6c78cf31-3707-4281-b80c-87f08cce7f24" transform="translate(201.04 53.76)">Blogs</text><rect x="330.09" y="35.82" width="93.25" height="26.27" rx="3.63" ry="3.63"/><text class="6c78cf31-3707-4281-b80c-87f08cce7f24" transform="translate(337.33 54.39)"><tspan class="fedff24a-eae9-4e27-a9f1-742f9d8510b7">S</tspan><tspan class="148ba595-ab54-443a-96cc-774bdfc417c3" x="7.81" y="0">t</tspan><tspan x="12.99" y="0">ock </tspan><tspan class="74a33913-0aad-4fa9-8f98-8ba195b4a1cc" x="39.74" y="0">A</tspan><tspan x="49.45" y="0">le</tspan><tspan class="811278b2-dcc6-4a41-9b6f-dffc713fb2a3" x="61.2" y="0">r</tspan><tspan x="66.79" y="0">ts</tspan></text><rect x="256.29" y="35.82" width="65.13" height="26.27" rx="3.63" ry="3.63"/><text class="6c78cf31-3707-4281-b80c-87f08cce7f24" transform="translate(267.94 54.39)"><tspan class="5a68a161-1009-41fa-9042-1184b8d8ad99">F</tspan><tspan x="7.27" y="0">orum</tspan></text><text y="-212.91"></text><rect x="189.67" y="105.06" width="141.67" height="26.27" rx="3.63" ry="3.63"/><text class="6c78cf31-3707-4281-b80c-87f08cce7f24" transform="translate(196.32 123.19)"><tspan class="8d663ec6-dbde-4973-a924-f435cd561553">F</tspan><tspan class="94460784-aed8-4b22-b789-7b5fb6fdf323" x="7.35" y="0">inancial Li</tspan><tspan class="148ba595-ab54-443a-96cc-774bdfc417c3" x="73.41" y="0">t</tspan><tspan class="51115232-a8b8-47c9-aea6-7b5256069e3d" x="78.59" y="0">e</tspan><tspan class="85940e6e-6384-4ecb-8aad-a64d5112eec8" x="86.58" y="0">r</tspan><tspan x="91.71" y="0">a</tspan><tspan class="e30d453e-fe78-49b9-8b53-f0716ed55dfc" x="99.39" y="0">c</tspan><tspan x="106.82" y="0">y</tspan></text><rect x="191.31" y="173.92" width="140.03" height="26.27" rx="3.63" ry="3.63"/><text class="6c78cf31-3707-4281-b80c-87f08cce7f24" transform="translate(197.31 192.31)"><tspan class="fedff24a-eae9-4e27-a9f1-742f9d8510b7">S</tspan><tspan class="148ba595-ab54-443a-96cc-774bdfc417c3" x="7.81" y="0">t</tspan><tspan x="12.99" y="0">ock </tspan><tspan class="e280f74d-5668-4517-84b7-71a57b66f611" x="39.74" y="0">R</tspan><tspan x="48.38" y="0">eview</tspan></text><image width="1033" height="668" transform="translate(8.03 12.05) scale(0.11)" xlink:href="../../Logo-with-text.png"/><rect class="8ae102c1-5e39-4796-936f-c53b543b561b" x="509.95" y="35.28" width="79.19" height="27.38" rx="3.63" ry="3.63"/><text class="48967904-e015-4d3e-bf96-996b4170c789" transform="translate(516.19 54.63) scale(1.04 1)"><tspan class="1e282348-5248-4bc6-ba37-b9b6b10894ed">A</tspan><tspan x="10.12" y="0">bout </tspan><tspan class="66b57e29-9629-48de-b0b6-cdfd6489dcda" x="46.87" y="0">U</tspan><tspan x="57.52" y="0">s</tspan></text><rect x="191.31" y="208.35" width="140.03" height="26.27" rx="3.63" ry="3.63"/><text class="6c78cf31-3707-4281-b80c-87f08cce7f24" transform="translate(197.02 227.1)"><tspan class="1273b0ab-260c-4b26-98f3-97ee682b88f8">E</tspan><tspan class="148ba595-ab54-443a-96cc-774bdfc417c3" x="7.78" y="0">c</tspan><tspan x="14.83" y="0">onomic </tspan><tspan class="1273b0ab-260c-4b26-98f3-97ee682b88f8" x="68.72" y="0">E</tspan><tspan x="76.5" y="0">di</tspan><tspan class="148ba595-ab54-443a-96cc-774bdfc417c3" x="89.22" y="0">t</tspan><tspan x="94.41" y="0">o</tspan><tspan class="dcc4ced6-7668-4af4-b043-b9501389468f" x="103.16" y="0">r</tspan><tspan x="108.43" y="0">ials</tspan></text><rect x="125.85" y="35.82" width="56.05" height="26.27" rx="3.63" ry="3.63"/><text class="6c78cf31-3707-4281-b80c-87f08cce7f24" transform="translate(134.36 54.08)">Home</text><polygon class="5cf8e351-2fef-4d27-ac37-0f8884a533af" points="834.52 95.1 919.27 15.64 905.65 0.02 951.9 0 943.7 41.07 932.12 27.3 858.4 95.1 834.52 95.1"/><polygon class="5cf8e351-2fef-4d27-ac37-0f8884a533af" points="858.41 95.1 789.4 34.76 725.04 95.03 748.92 95.1 790.13 57.2 834.52 95.1 858.41 95.1"/><polygon class="5cf8e351-2fef-4d27-ac37-0f8884a533af" points="739.31 95.1 698.25 59.2 659.96 95.06 674.17 95.1 698.69 72.55 725.1 95.1 739.31 95.1"/><rect x="189.67" y="139.49" width="141.67" height="26.27" rx="3.63" ry="3.63"/><text class="6c78cf31-3707-4281-b80c-87f08cce7f24" transform="translate(196.2 158.02)"><tspan class="84fe9c21-677a-40e1-bdaa-ab8bbed78a93">M</tspan><tspan class="51115232-a8b8-47c9-aea6-7b5256069e3d" x="12.91" y="0">a</tspan><tspan class="dcc4ced6-7668-4af4-b043-b9501389468f" x="20.6" y="0">r</tspan><tspan x="25.87" y="0">ket Upd</tspan><tspan class="1273b0ab-260c-4b26-98f3-97ee682b88f8" x="78.37" y="0">a</tspan><tspan class="b38a332c-48b2-4bc2-baba-52b46cf62e5c" x="85.99" y="0">t</tspan><tspan x="91.17" y="0">es</tspan></text><polygon class="5cf8e351-2fef-4d27-ac37-0f8884a533af" points="538.42 89.95 560.68 89.95 549.55 80.08 538.42 89.95"/><polygon class="5cf8e351-2fef-4d27-ac37-0f8884a533af" points="347.21 163.75 347.21 141.49 337.33 152.62 347.21 163.75"/><rect class="f54a835d-bef5-4587-8942-6a37dfea63d4" x="795.81" y="31.17" width="296" height="34.76" rx="6.15" ry="6.15"/><circle class="1d25bf7a-67bc-49ba-8719-9fbaa37016c3" cx="1073.82" cy="48.03" r="6.56"/><line class="1d25bf7a-67bc-49ba-8719-9fbaa37016c3" x1="1078.49" y1="52.64" x2="1083.1" y2="57.01"/><rect x="598.59" y="35.41" width="80.57" height="26.27" rx="3.63" ry="3.63"/><text class="6c78cf31-3707-4281-b80c-87f08cce7f24" transform="translate(601.97 54.23)"><tspan class="ef52285f-825b-4dc4-8374-d318670bffa6">C</tspan><tspan class="94460784-aed8-4b22-b789-7b5fb6fdf323" x="9.07" y="0">o</tspan><tspan class="1273b0ab-260c-4b26-98f3-97ee682b88f8" x="17.82" y="0">n</tspan><tspan x="26.61" y="0">ta</tspan><tspan class="57f912f4-4412-4961-8e87-cad7de1c61de" x="39.57" y="0">c</tspan><tspan x="46.92" y="0">t </tspan><tspan class="148ba595-ab54-443a-96cc-774bdfc417c3" x="55.57" y="0">U</tspan><tspan x="65.79" y="0">s</tspan></text><line class="a14e3fef-d885-4468-96b2-ef0a84fe0be7" x1="247.43" y1="95.03" x2="348.45" y2="95.03"/></svg>